<svg width="16" height="16" viewBox="0 0 16 16" fill="none" xmlns="http://www.w3.org/2000/svg">
<circle cx="8" cy="8" r="8" fill="#61C66C"/>
<path d="M8 7.6001V10.9334M8 10.9334L9.25 9.68343M8 10.9334L6.75 9.68343" stroke="white" stroke-width="0.7" stroke-linecap="round" stroke-linejoin="round"/>
<path d="M5.94299 5.95907V5.51568C5.94299 4.4872 6.77035 3.47701 7.79882 3.38102C9.02385 3.26217 10.0569 4.22665 10.0569 5.42883V6.05963" stroke="white" stroke-width="0.9" stroke-linecap="round" stroke-linejoin="round"/>
<path d="M9.3713 12.5093C11.2088 12.5093 11.538 11.7733 11.634 10.8774L11.9768 8.13482C12.1002 7.01949 11.7802 6.10986 9.8284 6.10986H6.1716C4.21978 6.10986 3.8998 7.01949 4.02322 8.13482L4.36605 10.8774C4.46204 11.7733 4.79115 12.5093 6.6287 12.5093H9.3713Z" stroke="white" stroke-width="0.9" stroke-linecap="round" stroke-linejoin="round"/>
</svg>
