<svg xmlns="http://www.w3.org/2000/svg" width="16" height="16" viewBox="0 0 16 16" fill="none">
  <path fill-rule="evenodd" clip-rule="evenodd" d="M8 2.54292e-07C3.58172 -1.31966e-07 2.03931e-06 3.58172 1.65306e-06 8C1.2668e-06 12.4183 3.58172 16 8 16C12.4183 16 16 12.4183 16 8C16 3.58172 12.4183 6.4055e-07 8 2.54292e-07ZM5.50232 7.95223C5.2751 7.72501 4.90672 7.72501 4.6795 7.95223C4.45229 8.17944 4.45229 8.54783 4.6795 8.77504L7.58859 11.6841C7.81581 11.9113 8.18419 11.9113 8.41141 11.6841L11.3205 8.77504C11.5477 8.54783 11.5477 8.17944 11.3205 7.95223C11.0933 7.72501 10.7249 7.72501 10.4977 7.95223L8.58182 9.86809L8.58182 4.36364C8.58182 4.04231 8.32133 3.78182 8 3.78182C7.67867 3.78182 7.41818 4.04231 7.41818 4.36364L7.41818 9.86809L5.50232 7.95223Z" fill="#61C66C"/>
</svg>