<svg xmlns="http://www.w3.org/2000/svg" width="16" height="16" viewBox="0 0 16 16" fill="none">
  <path fill-rule="evenodd" clip-rule="evenodd" d="M8 16C12.4183 16 16 12.4183 16 8C16 3.58172 12.4183 0 8 0C3.58172 0 0 3.58172 0 8C0 12.4183 3.58172 16 8 16ZM8.68114 3.16544C8.3308 3.01152 7.93283 3.01152 7.58249 3.16544C7.33796 3.27287 7.1608 3.46721 7.00843 3.67476C6.85804 3.8796 6.69243 4.15439 6.49289 4.48545L6.48169 4.50403L6.00933 5.28773C5.88103 5.50059 5.94958 5.77714 6.16244 5.90544C6.37529 6.03373 6.65185 5.96518 6.78014 5.75233L7.2525 4.96863C7.46611 4.61424 7.61073 4.37515 7.73391 4.20737C7.8579 4.03848 7.91987 4.00024 7.9445 3.98942C8.06414 3.93686 8.19949 3.93686 8.31913 3.98942C8.34376 4.00024 8.40573 4.03848 8.52972 4.20737C8.6529 4.37515 8.79753 4.61424 9.01113 4.96863L9.4639 5.71982L8.62212 5.49113C8.38229 5.42597 8.13504 5.56758 8.06988 5.80741C8.00473 6.04725 8.14633 6.29449 8.38617 6.35965L10.2843 6.87533C10.4 6.90676 10.5235 6.89072 10.6273 6.83078C10.7311 6.77084 10.8067 6.67195 10.8374 6.55604L11.346 4.63152C11.4095 4.39124 11.2662 4.14497 11.0259 4.08147C10.7856 4.01797 10.5393 4.16128 10.4758 4.40156L10.2455 5.27313L9.78194 4.50403L9.77074 4.48544C9.5712 4.15438 9.40559 3.8796 9.2552 3.67476C9.10283 3.46721 8.92567 3.27287 8.68114 3.16544ZM5.83322 6.98442C5.80259 6.86852 5.72697 6.76963 5.62315 6.70969C5.51932 6.64974 5.39587 6.63371 5.28018 6.66514L3.38202 7.18082C3.14219 7.24597 3.00058 7.49322 3.06574 7.73305C3.1309 7.97289 3.37814 8.11449 3.61798 8.04934L4.48713 7.81321L4.02951 8.57245L4.01812 8.59135L4.0181 8.59137C3.80255 8.94899 3.62484 9.24382 3.50655 9.48769C3.38744 9.73323 3.29341 9.99437 3.3174 10.2724C3.35148 10.6674 3.55132 11.0303 3.86887 11.2679C4.0935 11.436 4.36579 11.4912 4.63538 11.5163C4.90298 11.5412 5.24432 11.5412 5.65716 11.5411H5.67963H6.51068C6.75921 11.5411 6.96068 11.3397 6.96068 11.0911C6.96068 10.8426 6.75921 10.6411 6.51068 10.6411H5.67963C5.23865 10.6411 4.93958 10.6407 4.71874 10.6201C4.49505 10.5993 4.42873 10.5628 4.40809 10.5473C4.29797 10.4649 4.22632 10.337 4.21407 10.1951C4.2115 10.1653 4.21681 10.0856 4.31631 9.88047C4.41455 9.67795 4.57052 9.41831 4.80032 9.03705L5.24834 8.29374L5.4717 9.13891C5.5352 9.37918 5.78146 9.52249 6.02174 9.45899C6.26202 9.39549 6.40533 9.14923 6.34183 8.90895L5.8565 7.07251C5.852 7.04647 5.84523 7.02085 5.83627 6.99597L5.83322 6.98442ZM11.7724 7.80634C11.6441 7.59348 11.3675 7.52494 11.1547 7.65323C10.9418 7.78153 10.8733 8.05808 11.0015 8.27093L11.4633 9.03705C11.6931 9.41831 11.8491 9.67795 11.9473 9.88047C12.0468 10.0856 12.0521 10.1653 12.0496 10.1951C12.0373 10.337 11.9657 10.4649 11.8555 10.5473C11.8349 10.5628 11.7686 10.5993 11.5449 10.6201C11.3241 10.6407 11.025 10.6411 10.584 10.6411H9.43929L10.0733 9.99829C10.2479 9.82135 10.2459 9.53643 10.0689 9.36191C9.892 9.18739 9.60709 9.18936 9.43257 9.3663L8.04302 10.7752C7.8702 10.9504 7.8702 11.2319 8.04302 11.4071L9.43257 12.816C9.60709 12.9929 9.892 12.9949 10.0689 12.8204C10.2459 12.6459 10.2479 12.3609 10.0733 12.184L9.43929 11.5411H10.584H10.6065C11.0193 11.5412 11.3607 11.5412 11.6283 11.5163C11.8978 11.4912 12.1701 11.436 12.3948 11.2679C12.7123 11.0303 12.9122 10.6674 12.9462 10.2724C12.9702 9.99437 12.8762 9.73323 12.7571 9.48769C12.6388 9.24382 12.4611 8.949 12.2455 8.59139L12.2341 8.57245L11.7724 7.80634Z" fill="#9D39F4"/>
</svg>