<svg xmlns="http://www.w3.org/2000/svg" width="16" height="16" viewBox="0 0 16 16" fill="none">
  <path fill-rule="evenodd" clip-rule="evenodd" d="M16 8C16 12.4183 12.4183 16 8 16C3.58172 16 0 12.4183 0 8C0 3.58172 3.58172 0 8 0C12.4183 0 16 3.58172 16 8ZM11.6819 8.80207C11.621 8.77352 11.5533 8.75924 11.4856 8.75924H4.50761C4.23012 8.75924 4 9.00194 4 9.29461C4 9.58728 4.23012 9.82998 4.50761 9.82998H10.2606L9.06936 11.0863C8.87309 11.2933 8.87309 11.636 9.06936 11.843C9.17089 11.95 9.29948 12 9.42808 12C9.55667 12 9.68529 11.95 9.78681 11.843L11.8443 9.67293C11.8917 9.62297 11.9255 9.56587 11.9526 9.50162C12.0068 9.37314 12.0068 9.22323 11.9594 9.09474C11.9052 8.96625 11.8105 8.85918 11.6819 8.80207ZM6.92386 4.91193L5.73266 6.16824H11.4856C11.7699 6.16824 12 6.41094 12 6.7036C12 6.99627 11.7699 7.23897 11.4924 7.23897H4.51439C4.44671 7.23897 4.37902 7.2247 4.31811 7.19614C4.18951 7.13904 4.09475 7.03196 4.04061 6.90347C3.98646 6.77499 3.98646 6.6251 4.04061 6.49661C4.06768 6.43237 4.10153 6.37525 4.1489 6.32528L6.20644 4.15526C6.40271 3.94825 6.72758 3.94825 6.92386 4.15526C7.12014 4.36226 7.12014 4.70492 6.92386 4.91193Z" fill="#229CFF"/>
</svg>