<svg xmlns="http://www.w3.org/2000/svg" width="16" height="16" viewBox="0 0 16 16" fill="none">
  <path fill-rule="evenodd" clip-rule="evenodd" d="M8 16C12.4183 16 16 12.4183 16 8C16 3.58172 12.4183 0 8 0C3.58172 0 0 3.58172 0 8C0 12.4183 3.58172 16 8 16ZM10.4977 8.04777C10.7249 8.27499 11.0933 8.27499 11.3205 8.04777C11.5477 7.82056 11.5477 7.45217 11.3205 7.22496L8.41141 4.31587C8.18419 4.08865 7.81581 4.08865 7.58859 4.31587L4.6795 7.22496C4.45229 7.45217 4.45229 7.82056 4.6795 8.04777C4.90672 8.27499 5.2751 8.27499 5.50232 8.04777L7.41818 6.13191L7.41818 11.6364C7.41818 11.9577 7.67867 12.2182 8 12.2182C8.32133 12.2182 8.58182 11.9577 8.58182 11.6364L8.58182 6.13191L10.4977 8.04777Z" fill="#61C66C"/>
</svg>