<svg width="32" height="32" viewBox="0 0 32 32" fill="none" xmlns="http://www.w3.org/2000/svg">
    <path d="M4 10.7385C4 7.5645 6.576 5 9.75 5H21.25C24.424 5 27 7.5645 27 10.7385V18.7655C27 21.928 24.424 24.4925 21.25 24.4925H19.525C19.1685 24.4925 18.8235 24.665 18.605 24.9525L16.88 27.241C16.121 28.253 14.879 28.253 14.12 27.241L12.395 24.9525C12.211 24.6995 11.797 24.4925 11.475 24.4925H9.75C6.576 24.4925 4 21.928 4 18.7655V17.6155V10.7385Z" fill="#5B39F4" fill-opacity="0.2"/>
    <path d="M18.7381 18.2277C18.7381 18.5982 19.0384 18.8985 19.4088 18.8985C19.7793 18.8985 20.0796 18.5982 20.0796 18.2277V11.4717C20.0796 11.1013 19.7793 10.801 19.4088 10.801C19.0384 10.801 18.7381 11.1013 18.7381 11.4717V18.2277Z" fill="#5B39F4" stroke="#5B39F4" stroke-width="0.1"/>
    <path d="M10.2337 18.8315L10.2095 18.8985H10.2807H11.5887H11.6247L11.6361 18.8643L12.3476 16.737H15.3319L16.0416 18.8643L16.053 18.8985H16.089H17.397H17.4682L17.4441 18.8315L14.5621 10.834L14.5502 10.801H14.515H14.2214H14.1714H13.8888H13.8388H13.1683H13.1332L13.1212 10.834L10.2337 18.8315ZM13.8305 12.3031H13.8527L14.9657 15.6394H12.7147L13.8305 12.3031Z" fill="#5B39F4" stroke="#5B39F4" stroke-width="0.1"/>
</svg>
