<svg width="20" height="20" viewBox="0 0 20 20" fill="none" xmlns="http://www.w3.org/2000/svg">
<path d="M5.01665 7.42496V9.83329C5.01665 10.3416 4.79998 11.1166 4.54165 11.55L3.58332 13.1416C2.99165 14.125 3.39998 15.2166 4.48332 15.5833C8.07498 16.7833 11.95 16.7833 15.5416 15.5833C16.55 15.25 16.9916 14.0583 16.4416 13.1416L15.4833 11.55C15.2333 11.1166 15.0166 10.3416 15.0166 9.83329V7.42496C15.0166 4.67496 12.7666 2.42496 10.0166 2.42496C7.25832 2.42496 5.01665 4.66662 5.01665 7.42496Z" fill="#5B39F4" fill-opacity="0.2"/>
<path d="M10.7584 2.49997C9.95837 2.39997 9.1917 2.4583 8.47504 2.66664C8.7167 2.04997 9.3167 1.61664 10.0167 1.61664C10.7167 1.61664 11.3167 2.04997 11.5584 2.66664C11.3 2.59164 11.0334 2.5333 10.7584 2.49997Z" fill="#5B39F4" fill-opacity="0.2"/>
<path d="M12.5167 16.8834C12.5167 18.2584 11.3917 19.3834 10.0167 19.3834C9.33336 19.3834 8.70003 19.1001 8.25003 18.6501C7.80003 18.2001 7.51669 17.5668 7.51669 16.8834" fill="#5B39F4" fill-opacity="0.2"/>
</svg>
