<svg width="40" height="40" viewBox="0 0 40 40" fill="none" xmlns="http://www.w3.org/2000/svg">
<g id="Coins/Bitcoin" clip-path="url(#clip0_3547_887)">
<path id="Vector" d="M39.397 24.838C36.726 35.553 25.874 42.073 15.158 39.401C4.44801 36.731 -2.07299 25.877 0.600007 15.164C3.26901 4.44799 14.121 -2.07301 24.833 0.597987C35.548 3.26999 42.068 14.123 39.397 24.838Z" fill="#F7931A"/>
<path id="Vector_2" d="M28.817 17.155C29.215 14.494 27.189 13.063 24.417 12.109L25.317 8.50302L23.122 7.95702L22.247 11.467C21.67 11.323 21.077 11.187 20.488 11.053L21.37 7.52002L19.177 6.97302L18.277 10.577C17.8089 10.4716 17.3419 10.3616 16.876 10.247L16.878 10.237L13.852 9.48002L13.268 11.824C13.268 11.824 14.896 12.198 14.862 12.221C15.751 12.442 15.912 13.031 15.885 13.497L14.861 17.604C14.922 17.62 15.001 17.642 15.089 17.678L14.857 17.62L13.422 23.374C13.313 23.644 13.037 24.049 12.416 23.895C12.438 23.927 10.821 23.497 10.821 23.497L9.73102 26.009L12.588 26.721C13.118 26.855 13.639 26.994 14.152 27.125L13.244 30.772L15.436 31.319L16.336 27.711C16.9334 27.8724 17.5164 28.0237 18.085 28.165L17.188 31.755L19.383 32.302L20.291 28.662C24.033 29.371 26.847 29.085 28.031 25.7C28.986 22.975 27.984 21.403 26.015 20.378C27.449 20.048 28.53 19.104 28.818 17.156L28.817 17.155ZM23.802 24.187C23.124 26.912 18.536 25.439 17.048 25.069L18.253 20.239C19.741 20.609 24.51 21.345 23.802 24.187ZM24.483 17.116C23.863 19.595 20.044 18.336 18.806 18.026L19.898 13.645C21.137 13.954 25.127 14.53 24.482 17.115" fill="white"/>
</g>
<defs>
<clipPath id="clip0_3547_887">
<rect width="40" height="40" fill="white"/>
</clipPath>
</defs>
</svg>
