<svg width="16" height="16" viewBox="0 0 16 16" fill="none" xmlns="http://www.w3.org/2000/svg">
<path d="M14.6668 4.59998C14.6668 2.26665 13.7335 1.33331 11.4002 1.33331H8.60016C6.26683 1.33331 5.3335 2.26665 5.3335 4.59998V5.33331H7.40016C9.7335 5.33331 10.6668 6.26665 10.6668 8.59998V10.6666H11.4002C13.7335 10.6666 14.6668 9.73331 14.6668 7.39998V4.59998Z" stroke="white" stroke-width="1.2" stroke-linecap="round" stroke-linejoin="round"/>
<path d="M10.6668 8.59998C10.6668 6.26665 9.7335 5.33331 7.40016 5.33331H4.60016C2.26683 5.33331 1.3335 6.26665 1.3335 8.59998V11.4C1.3335 13.7333 2.26683 14.6666 4.60016 14.6666H7.40016C9.7335 14.6666 10.6668 13.7333 10.6668 11.4V8.59998Z" stroke="white" stroke-width="1.2" stroke-linecap="round" stroke-linejoin="round"/>
<path d="M4.05322 10L5.35322 11.3L7.94656 8.70001" stroke="white" stroke-width="1.2" stroke-linecap="round" stroke-linejoin="round"/>
</svg>
