<svg width="33" height="32" viewBox="0 0 33 32" fill="none" xmlns="http://www.w3.org/2000/svg">
<path fill-rule="evenodd" clip-rule="evenodd" d="M16.75 28C10.1226 28 4.75002 22.6274 4.75002 16C4.75002 9.37261 10.1226 4.00003 16.75 4.00003C23.3774 4.00003 28.75 9.37261 28.75 16C28.75 22.6274 23.3774 28 16.75 28Z" fill="#5B39F4" fill-opacity="0.2"/>
<path d="M19.7134 15.964L17.6494 18.028V11.8C17.6494 11.308 17.2414 10.9 16.7494 10.9C16.2574 10.9 15.8494 11.308 15.8494 11.8V18.028L13.7854 15.964C13.4374 15.616 12.8614 15.616 12.5134 15.964C12.1654 16.312 12.1654 16.888 12.5134 17.236L16.1134 20.836C16.2934 21.016 16.5214 21.1 16.7494 21.1C16.9774 21.1 17.2054 21.016 17.3854 20.836L20.9854 17.236C21.3334 16.888 21.3334 16.312 20.9854 15.964C20.6374 15.616 20.0614 15.616 19.7134 15.964Z" fill="#5B39F4"/>
</svg>
