<svg width="33" height="32" viewBox="0 0 33 32" fill="none" xmlns="http://www.w3.org/2000/svg">
<path d="M22.8105 4.39579C20.8305 3.81979 19.4625 3.86779 18.5145 4.57579C17.3745 5.4278 17.2425 6.96381 17.2425 8.05582V11.0438C17.2425 13.9959 18.5865 15.4959 21.2265 15.4959H24.6705C25.7505 15.4959 27.2985 15.3639 28.1506 14.2239C28.8826 13.2879 28.9426 11.9199 28.3546 9.93984C27.5865 7.33581 25.4145 5.1638 22.8105 4.39579Z" fill="#5B39F4"/>
<path d="M23.8056 17.0676H19.5096C17.3976 17.0676 15.6815 15.3516 15.6815 13.2396V8.94355C15.6815 8.47555 15.4775 8.01955 15.1175 7.70754C14.7695 7.39554 14.2895 7.25154 13.8335 7.31154C11.0135 7.67154 8.42148 9.21956 6.72947 11.5476C5.02545 13.8876 4.40145 16.7436 4.94145 19.5996C5.72146 23.7277 9.02149 27.0277 13.1615 27.8077C13.8215 27.9397 14.4815 27.9997 15.1415 27.9997C17.3136 27.9997 19.4136 27.3277 21.2016 26.0197C23.5296 24.3277 25.0776 21.7357 25.4376 18.9156C25.4976 18.4476 25.3536 17.9796 25.0416 17.6316C24.7296 17.2716 24.2736 17.0676 23.8056 17.0676Z" fill="#5B39F4" fill-opacity="0.2"/>
</svg>
