<svg xmlns="http://www.w3.org/2000/svg" width="33" height="32" viewBox="0 0 33 32" fill="none">
  <path fill-rule="evenodd" clip-rule="evenodd" d="M16.25 29.3333C8.88619 29.3333 2.91666 23.3638 2.91666 16C2.91666 8.63619 8.88619 2.66666 16.25 2.66666C23.6138 2.66666 29.5833 8.63619 29.5833 16C29.5833 23.3638 23.6138 29.3333 16.25 29.3333Z" fill="#5B39F4" fill-opacity="0.2"/>
  <path d="M15.6074 12.0104L16.251 12.8764L16.8926 12.009C17.4681 11.231 18.4069 10.7199 19.4495 10.7199C21.2158 10.7199 22.6495 12.1565 22.6495 13.9465C22.6495 16.2004 21.6101 18.0136 20.2823 19.3724C18.946 20.7399 17.3672 21.5928 16.4365 21.9076C16.4351 21.908 16.4165 21.9133 16.3784 21.9183C16.3397 21.9234 16.293 21.9266 16.2428 21.9266C16.1926 21.9266 16.1459 21.9234 16.1072 21.9183C16.0702 21.9135 16.0516 21.9083 16.0493 21.9077C15.1245 21.5925 13.5495 20.7397 12.2153 19.3728C10.8888 18.0138 9.84947 16.2004 9.84947 13.9465C9.84947 12.1565 11.2831 10.7199 13.0495 10.7199C14.0927 10.7199 15.0187 11.2184 15.6074 12.0104Z" stroke="#5B39F4" stroke-width="1.6"/>
</svg>