<svg width="33" height="32" viewBox="0 0 33 32" fill="none" xmlns="http://www.w3.org/2000/svg">
<path fill-rule="evenodd" clip-rule="evenodd" d="M16.25 28C9.62258 28 4.25 22.6274 4.25 16C4.25 9.37261 9.62258 4.00003 16.25 4.00003C22.8774 4.00003 28.25 9.37261 28.25 16C28.25 22.6274 22.8774 28 16.25 28Z" fill="#5B39F4" fill-opacity="0.2"/>
<path d="M22.7778 17.3441C22.6698 17.2961 22.5498 17.2721 22.4298 17.2721H10.0578C9.56581 17.2721 9.15781 17.6801 9.15781 18.1721C9.15781 18.6641 9.56581 19.0721 10.0578 19.0721H20.2578L18.1458 21.1841C17.7978 21.5321 17.7978 22.1081 18.1458 22.4561C18.3258 22.6361 18.5538 22.7201 18.7818 22.7201C19.0098 22.7201 19.2378 22.6361 19.4178 22.4561L23.0658 18.8081C23.1498 18.7241 23.2098 18.6281 23.2578 18.5201C23.3538 18.3041 23.3538 18.0521 23.2698 17.8361C23.1738 17.6201 23.0058 17.4401 22.7778 17.3441Z" fill="#5B39F4"/>
<path d="M12.2298 12.9162L14.3418 10.8042C14.6898 10.4562 14.6898 9.88015 14.3418 9.53215C13.9938 9.18415 13.4178 9.18415 13.0698 9.53215L9.42181 13.1802C9.33781 13.2642 9.27781 13.3602 9.22981 13.4682C9.13381 13.6842 9.13381 13.9362 9.22981 14.1522C9.32581 14.3682 9.49381 14.5482 9.72181 14.6442C9.82981 14.6922 9.94982 14.7162 10.0698 14.7162H22.4418C22.9338 14.7162 23.3418 14.3082 23.3418 13.8162C23.3418 13.3242 22.9338 12.9162 22.4298 12.9162H12.2298Z" fill="#5B39F4"/>
</svg>
