<svg width="40" height="40" viewBox="0 0 40 40" fill="none" xmlns="http://www.w3.org/2000/svg">
<g clip-path="url(#clip0_5925_3379)">
<path d="M40 20C40 8.9543 31.0457 0 20 0C8.9543 0 0 8.9543 0 20C0 31.0457 8.9543 40 20 40C31.0457 40 40 31.0457 40 20Z" fill="#5ACBE2"/>
<path fill-rule="evenodd" clip-rule="evenodd" d="M10 20C10 25.52 14.48 30 20 30C25.52 30 30 25.52 30 20C30 14.48 25.52 10 20 10C14.48 10 10 14.48 10 20ZM18.21 17.14C18.21 17.95 17.55 18.62 16.73 18.62C15.92 18.62 15.25 17.96 15.25 17.14C15.25 16.32 15.91 15.66 16.73 15.66C17.54 15.66 18.21 16.32 18.21 17.14ZM16.32 24.02C16.13 24.02 15.94 23.95 15.79 23.8C15.5 23.51 15.5 23.03 15.79 22.74L22.34 16.19C22.63 15.9 23.11 15.9 23.4 16.19C23.69 16.48 23.69 16.96 23.4 17.25L16.85 23.8C16.7 23.95 16.51 24.02 16.32 24.02ZM21.79 22.86C21.79 22.05 22.45 21.38 23.27 21.38C24.08 21.38 24.75 22.04 24.75 22.86C24.75 23.68 24.09 24.34 23.27 24.34C22.46 24.34 21.79 23.68 21.79 22.86Z" fill="white"/>
</g>
<defs>
<clipPath id="clip0_5925_3379">
<rect width="40" height="40" fill="white"/>
</clipPath>
</defs>
</svg>
