<svg width="24" height="24" viewBox="0 0 24 24" fill="none" xmlns="http://www.w3.org/2000/svg">
<path d="M14.5055 1.86565C12.7802 0.656858 10.1319 0.722792 8.47253 2.00851L2.96703 6.30521C1.86813 7.16235 1 8.92059 1 10.3052V17.8876C1 20.6898 3.27472 22.9755 6.07692 22.9755H17.9231C20.7253 22.9755 23 20.7008 23 17.8986V10.4481C23 8.96455 22.044 7.14037 20.8352 6.29422L14.5055 1.86565Z" fill="#5B39F4"/>
<path d="M11.1755 18.5803V15.2836C11.1755 14.833 11.5492 14.4594 11.9997 14.4594C12.4503 14.4594 12.8239 14.833 12.8239 15.2836V18.5803C12.8239 19.0308 12.4503 19.4045 11.9997 19.4045C11.5492 19.4045 11.1755 19.0308 11.1755 18.5803Z" fill="white"/>
</svg>
