<svg width="24" height="24" viewBox="0 0 24 24" fill="none" xmlns="http://www.w3.org/2000/svg">
<path d="M14.5055 1.86564C12.7802 0.65685 10.1319 0.722784 8.47253 2.0085L2.96703 6.3052C1.86813 7.16234 1 8.92059 1 10.3052V17.8876C1 20.6898 3.27472 22.9755 6.07692 22.9755H17.9231C20.7253 22.9755 23 20.7008 23 17.8986V10.4481C23 8.96454 22.044 7.14037 20.8352 6.29421L14.5055 1.86564Z" fill="#5B39F4" fill-opacity="0.2"/>
<path d="M11.0834 18.5795V15.2832C11.0834 14.8327 11.457 14.4591 11.9075 14.4591C12.358 14.4591 12.7315 14.8327 12.7315 15.2832V18.5795C12.7315 19.03 12.358 19.4036 11.9075 19.4036C11.457 19.4036 11.0834 19.03 11.0834 18.5795Z" fill="#5B39F4"/>
</svg>
