<svg width="24" height="24" viewBox="0 0 24 24" fill="none" xmlns="http://www.w3.org/2000/svg">
<g id="vuesax/twotone-fill/home-2">
<path id="Vector" opacity="0.1" d="M14.2777 2.78473C12.7093 1.68582 10.3017 1.74576 8.79321 2.9146L3.78821 6.82069C2.78921 7.59991 2 9.19831 2 10.4571V17.3502C2 19.8976 4.06793 21.9755 6.61538 21.9755H17.3846C19.9321 21.9755 22 19.9076 22 17.3602V10.5869C22 9.23827 21.1309 7.57993 20.032 6.8107L14.2777 2.78473Z" fill="#24262E"/>
<path id="Vector_2" d="M11.1667 17.9798V14.9828C11.1667 14.5732 11.5063 14.2336 11.9159 14.2336C12.3255 14.2336 12.6652 14.5732 12.6652 14.9828V17.9798C12.6652 18.3894 12.3255 18.7291 11.9159 18.7291C11.5063 18.7291 11.1667 18.3894 11.1667 17.9798Z" fill="#24262E"/>
</g>
</svg>
