<svg width="32" height="32" viewBox="0 0 32 32" fill="none" xmlns="http://www.w3.org/2000/svg">
<path fill-rule="evenodd" clip-rule="evenodd" d="M0 16C0 24.816 7.184 32 16 32C24.816 32 32 24.816 32 16C32 7.184 24.816 0 16 0C7.184 0 0 7.184 0 16ZM17.2 17.2V22.4C17.2 23.056 16.656 23.6 16 23.6C15.344 23.6 14.8 23.056 14.8 22.4V17.2H9.6C8.944 17.2 8.4 16.656 8.4 16C8.4 15.344 8.944 14.8 9.6 14.8H14.8V9.6C14.8 8.944 15.344 8.4 16 8.4C16.656 8.4 17.2 8.944 17.2 9.6V14.8H22.4C23.056 14.8 23.6 15.344 23.6 16C23.6 16.656 23.056 17.2 22.4 17.2H17.2Z" fill="#5B39F4"/>
</svg>
