<svg xmlns="http://www.w3.org/2000/svg" width="24" height="24" viewBox="0 0 24 24" fill="none">
  <path d="M6.2998 5.69991C6.2998 8.78392 8.71182 11.2799 11.8558 11.3879C11.9518 11.3759 12.0478 11.3759 12.1198 11.3879C12.1438 11.3879 12.1558 11.3879 12.1798 11.3879C12.1918 11.3879 12.1918 11.3879 12.2038 11.3879C15.2759 11.2799 17.6879 8.78392 17.6999 5.69991C17.6999 2.55589 15.1439 -0.00012207 11.9998 -0.00012207C8.85582 -0.00012207 6.2998 2.55589 6.2998 5.69991Z" fill='currentColor' fill-opacity="1"/>
  <path d="M5.91675 14.5799C4.39274 15.5999 3.55273 16.9799 3.55273 18.4559C3.55273 19.9319 4.39274 21.2999 5.90475 22.3079C7.58476 23.4359 9.79277 23.9999 12.0008 23.9999C14.2088 23.9999 16.4168 23.4359 18.0968 22.3079C19.6088 21.2879 20.4488 19.9199 20.4488 18.4319C20.4368 16.9559 19.6088 15.5879 18.0968 14.5799C14.7488 12.3479 9.28877 12.3479 5.91675 14.5799Z" fill="currentColor" fill-opacity="1"/>
</svg>