<svg width="40" height="40" viewBox="0 0 40 40" fill="none" xmlns="http://www.w3.org/2000/svg">
<g clip-path="url(#clip0_5925_3368)">
<path d="M40 20C40 8.9543 31.0457 0 20 0C8.9543 0 0 8.9543 0 20C0 31.0457 8.9543 40 20 40C31.0457 40 40 31.0457 40 20Z" fill="#61C66C"/>
<path d="M22.8205 18.7209V11.5209C22.8205 9.84087 21.9105 9.50087 20.8005 10.7609L20.0005 11.6709L13.2305 19.3709C12.3005 20.4209 12.6905 21.2809 14.0905 21.2809H17.1805V28.4809C17.1805 30.1609 18.0905 30.5009 19.2005 29.2409L20.0005 28.3309L26.7705 20.6309C27.7005 19.5809 27.3105 18.7209 25.9105 18.7209H22.8205Z" fill="white"/>
</g>
<defs>
<clipPath id="clip0_5925_3368">
<rect width="40" height="40" fill="white"/>
</clipPath>
</defs>
</svg>
