<svg width="40" height="40" viewBox="0 0 40 40" fill="none" xmlns="http://www.w3.org/2000/svg">
<g id="Coins/USDT" clip-path="url(#clip0_3547_444)">
<path id="Vector" d="M40 20C40 8.9543 31.0457 0 20 0C8.9543 0 0 8.9543 0 20C0 31.0457 8.9543 40 20 40C31.0457 40 40 31.0457 40 20Z" fill="#28C281"/>
<path id="Vector_2" d="M20.014 32.05C19.275 32.05 18.797 31.586 18.797 30.807V29.426C15.898 29.084 13.889 27.594 13.301 25.693C13.2118 25.4522 13.1654 25.1977 13.164 24.941C13.164 24.081 13.752 23.506 14.695 23.506C15.488 23.506 15.94 23.971 16.227 24.613C16.773 26.008 18.059 26.773 20.137 26.773C22.337 26.773 23.747 25.898 23.747 24.272C23.747 22.891 22.488 22.18 20.397 21.688L18.537 21.25C15.42 20.54 13.356 18.762 13.356 16.178C13.356 13.088 15.734 11.228 18.796 10.846V9.44999C18.796 8.66999 19.276 8.20599 20.014 8.20599C20.752 8.20599 21.231 8.67099 21.231 9.44999V10.845C23.911 11.173 25.851 12.622 26.453 14.632C26.522 14.892 26.576 15.138 26.576 15.397C26.576 16.19 25.975 16.669 25.1 16.669C24.307 16.669 23.883 16.286 23.541 15.629C22.926 14.194 21.859 13.497 20.027 13.497C17.936 13.497 16.677 14.427 16.677 15.89C16.677 17.147 17.908 17.927 19.727 18.337L21.504 18.747C25.018 19.554 27.014 21.263 27.014 23.942C27.014 27.306 24.334 29.11 21.231 29.452V30.806C21.231 31.585 20.752 32.05 20.014 32.05Z" fill="white"/>
</g>
<defs>
<clipPath id="clip0_3547_444">
<rect width="40" height="40" fill="white"/>
</clipPath>
</defs>
</svg>
