<svg width="12" height="13" viewBox="0 0 12 13" fill="none" xmlns="http://www.w3.org/2000/svg">
    <path d="M6.5 5H3.5" stroke="#0B002E" stroke-width="0.75" stroke-linecap="round" stroke-linejoin="round"/>
    <path d="M11.0001 7.01498C11.0001 7.28998 10.7801 7.51496 10.5001 7.52496H9.5201C8.9801 7.52496 8.48511 7.12997 8.44011 6.58997C8.41011 6.27497 8.5301 5.97996 8.7401 5.77496C8.9251 5.58496 9.1801 5.47498 9.4601 5.47498H10.5001C10.7801 5.48498 11.0001 5.70995 11.0001 5.98495V7.01498Z" stroke="#0B002E" stroke-width="0.75" stroke-linecap="round" stroke-linejoin="round"/>
    <path d="M8.44 6.59C8.485 7.13 8.97999 7.52499 9.51999 7.52499H10.5V8.25C10.5 9.75 9.5 10.75 8 10.75H3.5C2 10.75 1 9.75 1 8.25V4.75C1 3.39 1.82 2.44 3.095 2.28C3.225 2.26 3.36 2.25 3.5 2.25H8C8.13 2.25 8.255 2.25499 8.375 2.27499C9.665 2.42499 10.5 3.38 10.5 4.75V5.47501H9.45999C9.17999 5.47501 8.92499 5.58499 8.73999 5.77499C8.52999 5.97999 8.41 6.275 8.44 6.59Z" stroke="#0B002E" stroke-width="0.75" stroke-linecap="round" stroke-linejoin="round"/>
</svg>
