<svg width="24" height="24" viewBox="0 0 24 24" fill="none" xmlns="http://www.w3.org/2000/svg">
<path opacity="0.6" d="M13.0431 0.706723L9.56274 8.78358H6.14238C5.32629 8.78358 4.55821 8.93959 3.83813 9.25163L5.93836 4.2351L5.98636 4.12708L6.05837 3.93506C6.09438 3.85106 6.11838 3.77905 6.15438 3.71904C7.72655 0.0826565 9.50274 -0.745431 13.0791 0.622714L13.0431 0.706723Z" fill="#5B39F4"/>
<path opacity="0.8" d="M17.8573 8.78351H9.56445L13.0448 0.706659L13.0808 0.62265C13.2488 0.682656 13.4289 0.766665 13.6089 0.826672L16.2612 1.94279C17.7373 2.55485 18.7694 3.19092 19.4055 3.959C19.5135 4.10302 19.6095 4.23503 19.7055 4.39105C19.8135 4.55907 19.8976 4.72708 19.9456 4.9071C19.9936 5.01512 20.0296 5.11112 20.0536 5.21914C20.3656 6.23924 20.1736 7.47538 19.5495 9.02354C19.0095 8.86752 18.4454 8.78351 17.8573 8.78351Z" fill="#5B39F4"/>
<path d="M23.7135 16.9801C23.7135 17.2202 23.7015 17.4602 23.6895 17.6882C23.4614 21.8887 21.1212 24.0009 16.6807 24.0009H7.31973C7.0197 24.0009 6.74367 23.9769 6.46764 23.9409C2.65124 23.6889 0.611022 21.6486 0.346994 17.8322C0.31099 17.5442 0.286987 17.2682 0.286987 16.9801V14.6399C0.286987 12.2276 1.75114 10.1514 3.83936 9.25133C4.55944 8.9393 5.32752 8.78328 6.14361 8.78328H17.8569C18.4449 8.78328 19.009 8.86729 19.549 9.02331C21.9493 9.75538 23.7135 11.9876 23.7135 14.6399V16.9801Z" fill="#5B39F4"/>
<path opacity="0.3" d="M3.83936 9.25128C1.75114 10.1514 0.286987 12.2276 0.286987 14.6399V11.1235C0.286987 7.71512 2.71124 4.87082 5.93959 4.23475L3.83936 9.25128Z" fill="#5B39F4"/>
<path opacity="0.3" d="M23.7119 14.6399C23.7119 11.9876 21.9477 9.75539 19.5475 9.02331C20.1716 7.47515 20.3636 6.23902 20.0515 5.21891C20.0275 5.1109 19.9915 5.01489 19.9435 4.90688C22.1878 6.071 23.7119 8.43525 23.7119 11.1235V14.6399Z" fill="#5B39F4"/>
<path d="M12.9 15.2282V13.2C12.9 12.7079 12.492 12.2999 11.9999 12.2999C11.5078 12.2999 11.0998 12.7079 11.0998 13.2V15.2282H8.99958C8.50753 15.2282 8.09949 15.6362 8.09949 16.1283C8.09949 16.6203 8.50753 17.0284 8.99958 17.0284H11.0998V19.2006C11.0998 19.6926 11.5078 20.1007 11.9999 20.1007C12.492 20.1007 12.9 19.6926 12.9 19.2006V17.0284H15.0002C15.4923 17.0284 15.9003 16.6203 15.9003 16.1283C15.9003 15.6362 15.4923 15.2282 15.0002 15.2282H12.9Z" fill="white"/>
</svg>
