<svg width="24" height="24" viewBox="0 0 24 24" fill="none" xmlns="http://www.w3.org/2000/svg">
<path opacity="0.5" d="M13.0431 0.706731L9.56269 8.7836H6.14232C5.32623 8.7836 4.55815 8.93961 3.83807 9.25165L5.9383 4.23511L5.9863 4.1271L6.05831 3.93508C6.09432 3.85107 6.11832 3.77906 6.15432 3.71905C7.72649 0.0826643 9.50268 -0.745424 13.0791 0.622722L13.0431 0.706731Z" fill="#5B39F4"/>
<path opacity="0.6" d="M17.8573 8.78349H9.56439L13.0448 0.706629L13.0808 0.62262C13.2488 0.682626 13.4288 0.766635 13.6088 0.826642L16.2611 1.94276C17.7373 2.55483 18.7694 3.1909 19.4054 3.95898C19.5135 4.10299 19.6095 4.23501 19.7055 4.39102C19.8135 4.55904 19.8975 4.72706 19.9455 4.90708C19.9935 5.01509 20.0295 5.1111 20.0535 5.21911C20.3655 6.23922 20.1735 7.47535 19.5495 9.02352C19.0094 8.8675 18.4453 8.78349 17.8573 8.78349Z" fill="#5B39F4"/>
<path d="M23.7134 16.9801C23.7134 17.2202 23.7014 17.4602 23.6894 17.6882C23.4614 21.8887 21.1211 24.0009 16.6807 24.0009H7.31968C7.01964 24.0009 6.74361 23.9769 6.46758 23.9409C2.65118 23.6889 0.610961 21.6486 0.346933 17.8322C0.310929 17.5442 0.286926 17.2682 0.286926 16.9801V14.6399C0.286926 12.2276 1.75108 10.1514 3.8393 9.25131C4.55938 8.93927 5.32746 8.78326 6.14355 8.78326H17.8568C18.4449 8.78326 19.0089 8.86727 19.549 9.02328C21.9492 9.75536 23.7134 11.9876 23.7134 14.6399V16.9801Z" fill="#5B39F4" fill-opacity="0.2"/>
<path opacity="0.3" d="M3.83931 9.25126C1.75108 10.1514 0.286926 12.2276 0.286926 14.6398V11.1235C0.286926 7.7151 2.71118 4.87079 5.93953 4.23473L3.83931 9.25126Z" fill="#5B39F4"/>
<path opacity="0.3" d="M23.7119 14.6399C23.7119 11.9876 21.9477 9.7554 19.5474 9.02332C20.1715 7.47515 20.3635 6.23902 20.0515 5.21891C20.0275 5.1109 19.9915 5.01489 19.9435 4.90688C22.1877 6.071 23.7119 8.43525 23.7119 11.1235V14.6399Z" fill="#5B39F4"/>
<path d="M12.8999 15.2282V13.2C12.8999 12.7079 12.4919 12.2999 11.9998 12.2999C11.5078 12.2999 11.0997 12.7079 11.0997 13.2V15.2282H8.99952C8.50747 15.2282 8.09943 15.6362 8.09943 16.1283C8.09943 16.6203 8.50747 17.0284 8.99952 17.0284H11.0997V19.2006C11.0997 19.6926 11.5078 20.1007 11.9998 20.1007C12.4919 20.1007 12.8999 19.6926 12.8999 19.2006V17.0284H15.0002C15.4922 17.0284 15.9003 16.6203 15.9003 16.1283C15.9003 15.6362 15.4922 15.2282 15.0002 15.2282H12.8999Z" fill="#5B39F4"/>
</svg>
