<svg width="24" height="24" viewBox="0 0 24 24" fill="none" xmlns="http://www.w3.org/2000/svg">
<path opacity="0.8" d="M13.0431 0.706754L9.56272 8.78362H6.14235C5.32626 8.78362 4.55818 8.93964 3.8381 9.25167L5.93833 4.23513L5.98633 4.12712L6.05834 3.9351C6.09435 3.85109 6.11835 3.77908 6.15435 3.71908C7.72652 0.0826872 9.50271 -0.745402 13.0791 0.622745L13.0431 0.706754Z" fill="#5B39F4"/>
<path d="M17.8573 8.78349H9.56442L13.0448 0.706629L13.0808 0.62262C13.2488 0.682626 13.4288 0.766635 13.6089 0.826642L16.2611 1.94276C17.7373 2.55483 18.7694 3.1909 19.4055 3.95898C19.5135 4.10299 19.6095 4.23501 19.7055 4.39102C19.8135 4.55904 19.8975 4.72706 19.9455 4.90708C19.9935 5.01509 20.0295 5.1111 20.0535 5.21911C20.3656 6.23922 20.1736 7.47535 19.5495 9.02352C19.0094 8.8675 18.4454 8.78349 17.8573 8.78349Z" fill="#5B39F4"/>
<path d="M23.7135 16.9801C23.7135 17.2202 23.7015 17.4602 23.6895 17.6882C23.4614 21.8887 21.1212 24.0009 16.6807 24.0009H7.31971C7.01968 24.0009 6.74364 23.9769 6.46762 23.9409C2.65121 23.6889 0.610991 21.6486 0.346963 17.8322C0.310959 17.5442 0.286957 17.2682 0.286957 16.9801V14.6399C0.286957 12.2276 1.75111 10.1514 3.83934 9.25131C4.55941 8.93928 5.32749 8.78326 6.14358 8.78326H17.8568C18.4449 8.78326 19.009 8.86727 19.549 9.02329C21.9493 9.75537 23.7135 11.9876 23.7135 14.6399V16.9801Z" fill="#5B39F4" fill-opacity="0.2"/>
<path opacity="0.6" d="M3.83934 9.25128C1.75111 10.1514 0.286957 12.2276 0.286957 14.6399V11.1235C0.286957 7.71511 2.71122 4.87081 5.93956 4.23474L3.83934 9.25128Z" fill="#5B39F4"/>
<path opacity="0.6" d="M23.7119 14.6399C23.7119 11.9876 21.9477 9.75538 19.5475 9.0233C20.1715 7.47514 20.3635 6.239 20.0515 5.21889C20.0275 5.11088 19.9915 5.01487 19.9435 4.90686C22.1877 6.07099 23.7119 8.43524 23.7119 11.1235V14.6399Z" fill="#5B39F4"/>
<path d="M12.9 15.2282V13.2C12.9 12.7079 12.4919 12.2999 11.9999 12.2999C11.5078 12.2999 11.0998 12.7079 11.0998 13.2V15.2282H8.99955C8.5075 15.2282 8.09946 15.6362 8.09946 16.1283C8.09946 16.6203 8.5075 17.0284 8.99955 17.0284H11.0998V19.2006C11.0998 19.6927 11.5078 20.1007 11.9999 20.1007C12.4919 20.1007 12.9 19.6927 12.9 19.2006V17.0284H15.0002C15.4922 17.0284 15.9003 16.6203 15.9003 16.1283C15.9003 15.6362 15.4922 15.2282 15.0002 15.2282H12.9Z" fill="#5B39F4"/>
</svg>
